<svg version="1.1" preserveAspectRatio="none" xmlns="http://www.w3.org/2000/svg" width="500" height="500" viewBox="0 0 500 500"><rect width="100%" height="100%" fill="#FFFFFF" fill-opacity="1"/><svg viewBox="377.6707 337.0088 385.3592 210" width="333" height="181.46705722868433" x="83.5px" y="159.2665px" xmlns="http://www.w3.org/2000/svg" xmlns:xlink="http://www.w3.org/1999/xlink" preserveAspectRatio="none"><defs></defs><style>.companyName {fill:#285380;fill-opacity:1;}.icon3 {fill:#E7A0AE;fill-opacity:1;}.icon3-str {stroke:#E7A0AE;stroke-opacity:1;}.shape {fill:#F9E9ED;fill-opacity:1;}</style><g opacity="1" transform="rotate(0 453.2057 337.0088)">
<svg width="234.2892" height="210" x="453.2057" y="337.0088" version="1.1" preserveAspectRatio="none" viewBox="5.976081848144531 15.80335807800293 188.02392578125 168.53155517578125">
  <g transform="matrix(1 0 0 1 0 0)" ><g><path d="M91.052 173.189C119.033 208.059 194 154.166 194 107.109 194 72.067 160 19 113.041 16 71.147 13.324 9.093 38.026 6.094 86.084S58 132 91.052 173.189z" data-color="1" class="shape"></path></g></g>
</svg>
</g><g opacity="1" transform="rotate(0 377.6707 373.0088)">
<svg width="385.3592" height="140" x="377.6707" y="373.0088" version="1.1" preserveAspectRatio="none" viewBox="-2.88 -30.16 91.16 33.12">
  <g transform="matrix(1 0 0 1 0 0)" class="companyName"><path id="id-D6z1nYkh4" d="M32.48-30.16Q33.76-30.16 34.32-29.60Q34.88-29.04 34.88-28.12L34.88-28.12Q34.88-27.04 34.24-26.14Q33.60-25.24 32.52-25.24L32.52-25.24Q31.72-25.24 31.36-25.70Q31-26.16 31-26.80L31-26.80Q31-27.44 31.36-28.12Q31.72-28.80 32.28-29.32L32.28-29.32L32.16-29.32Q30.20-29.28 28.88-27.28L28.88-27.28Q27.12-24.64 25.20-17.98Q23.28-11.32 20.84 0.20L20.84 0.20L19.96 0.20L10.84-25.56Q8.88-15.52 7.14-8.60Q5.40-1.68 3.80 0.44L3.80 0.44Q2.92 1.60 1.94 2.28Q0.96 2.96-0.48 2.96L-0.48 2.96Q-2.88 2.96-2.88 0.88L-2.88 0.88Q-2.88-0.20-2.24-1.08Q-1.60-1.96-0.52-1.96L-0.52-1.96Q0.28-1.96 0.64-1.50Q1-1.04 1-0.40L1-0.40Q1 0.24 0.64 0.92Q0.28 1.60-0.28 2.12L-0.28 2.12L-0.16 2.12Q1.88 2.08 3.16 0.04L3.16 0.04Q4.64-2.32 6.24-8.40Q7.84-14.48 9.72-24.08L9.72-24.08Q9.96-25.24 9.96-25.88L9.96-25.88Q9.96-26.84 9.32-27.14Q8.68-27.44 6.88-27.52L6.88-27.52L7.08-28.32Q8.36-28.20 10.64-28.20L10.64-28.20Q12.48-28.20 13.88-28.32L13.88-28.32L21.44-6.20Q23.16-13.88 24.80-19.50Q26.44-25.12 28.16-27.60L28.16-27.60Q29.92-30.16 32.48-30.16L32.48-30.16Z M29.24-5.72Q29.24-8.88 30.64-12.50Q32.04-16.12 34.68-18.62Q37.32-21.12 40.80-21.12L40.80-21.12Q43.36-21.12 44.82-19.54Q46.28-17.96 46.28-14.84L46.28-14.84Q46.28-11.68 44.88-8.06Q43.48-4.44 40.84-1.94Q38.20 0.56 34.72 0.56L34.72 0.56Q32.16 0.56 30.70-1.02Q29.24-2.60 29.24-5.72L29.24-5.72ZM40.56-20.32Q38.52-20.32 36.70-17.72Q34.88-15.12 33.78-11.22Q32.68-7.32 32.68-3.72L32.68-3.72Q32.68-1.92 33.24-1.08Q33.80-0.24 34.96-0.24L34.96-0.24Q37-0.24 38.82-2.84Q40.64-5.44 41.74-9.34Q42.84-13.24 42.84-16.84L42.84-16.84Q42.84-18.64 42.28-19.48Q41.72-20.32 40.56-20.32L40.56-20.32Z M66.88-15.16Q65.64-15.76 64.80-16.80Q63.96-17.84 63.96-19.20L63.96-19.20Q63.96-20.20 64.50-20.68Q65.04-21.16 65.72-21.16L65.72-21.16Q66.84-21.16 67.40-20.08Q67.96-19 67.96-17.12L67.96-17.12Q67.96-16.08 67.88-15.52L67.88-15.52Q67.40-11.40 65.78-7.72Q64.16-4.04 61.46-1.74Q58.76 0.56 55.24 0.56L55.24 0.56Q52.72 0.56 51.64-0.88Q50.56-2.32 50.68-4.40L50.68-4.40Q50.92-7.68 53.42-11.72Q55.92-15.76 59.96-19.60L59.96-19.60Q58.96-19.20 57.68-18.40L57.68-18.40Q56.68-17.76 55.96-17.42Q55.24-17.08 54.68-17.08L54.68-17.08Q54.24-17.08 53.84-17.32Q53.44-17.56 53.32-17.60L53.32-17.60Q52.60-18.08 52.16-18.08L52.16-18.08Q51.52-18.08 51.10-17.54Q50.68-17 50.20-15.60L50.20-15.60L49.76-14.12L49-14.12L49.88-17.04Q51-21.12 53.64-21.12L53.64-21.12Q54.16-21.12 54.52-20.94Q54.88-20.76 55.44-20.36L55.44-20.36Q55.96-19.96 56.36-19.76Q56.76-19.56 57.28-19.56L57.28-19.56Q59.28-19.56 60.64-20.80L60.64-20.80L61.04-21.56L61.88-21.16Q58.64-17.16 56.84-13.20Q55.04-9.24 54.68-5.08L54.68-5.08Q54.64-4.72 54.64-4.12L54.64-4.12Q54.64-0.76 56.40-0.76L56.40-0.76Q59.32-0.76 61.68-3.20Q64.04-5.64 65.40-9.06Q66.76-12.48 66.88-15.16L66.88-15.16Z M86.96-5.04L87.44-6.52L88.20-6.52L87.20-3.60Q86.40-1.40 85.16-0.42Q83.92 0.56 82.60 0.56L82.60 0.56Q81.84 0.56 81.28 0.28Q80.72 0 80.40-0.48L80.40-0.48Q80.04-1.08 80.04-1.88L80.04-1.88Q80.04-2.72 80.32-3.76Q80.60-4.80 80.68-5.08L80.68-5.08L81.40-7.96Q79.48-3.48 77.50-1.46Q75.52 0.56 73.36 0.56L73.36 0.56Q71.52 0.56 70.56-0.76Q69.60-2.08 69.60-4.28L69.60-4.28Q69.60-7.52 71.32-11.52Q73.04-15.52 75.80-18.32Q78.56-21.12 81.40-21.12L81.40-21.12Q82.48-21.12 83.16-20.32Q83.84-19.52 83.96-18.08L83.96-18.08L84.60-20.56Q86.80-20.64 88.28-21.12L88.28-21.12L83.28-3.44Q83.24-3.28 83.12-2.82Q83.00-2.36 83.00-1.96L83.00-1.96Q83.00-0.96 83.88-0.96L83.88-0.96Q85.64-0.96 86.96-5.04L86.96-5.04ZM74.52-0.72Q75.64-0.72 77.20-2.44Q78.76-4.16 80.26-7.02Q81.76-9.88 82.72-13.12L82.72-13.12L83.44-15.96Q83.48-16.28 83.48-16.84L83.48-16.84Q83.48-18.48 82.90-19.42Q82.32-20.36 81.28-20.36L81.28-20.36Q79.56-20.36 77.64-17.70Q75.72-15.04 74.42-11.14Q73.12-7.24 73.12-3.80L73.12-3.80Q73.12-2.16 73.48-1.44Q73.84-0.72 74.52-0.72L74.52-0.72Z"/></g>
</svg>
</g></svg></svg>